<?xml version="1.0" encoding="UTF-8"?>
<!--Generator: Apple Native CoreSVG 232.5-->
<!DOCTYPE svg
PUBLIC "-//W3C//DTD SVG 1.1//EN"
       "http://www.w3.org/Graphics/SVG/1.1/DTD/svg11.dtd">
<svg version="1.1" xmlns="http://www.w3.org/2000/svg" xmlns:xlink="http://www.w3.org/1999/xlink" width="11.1406" height="10.9922">
 <g>
  <rect height="10.9922" opacity="0" width="11.1406" x="0" y="0"/>
  <path d="M4.14062 10.9922C4.44531 10.9922 4.6875 10.8594 4.85938 10.5938L10.5547 1.58594C10.6875 1.38281 10.7344 1.21875 10.7344 1.05469C10.7344 0.671875 10.4844 0.414062 10.0938 0.414062C9.8125 0.414062 9.65625 0.507812 9.48438 0.78125L4.10938 9.40625L1.28125 5.59375C1.10156 5.35156 0.929688 5.25 0.671875 5.25C0.28125 5.25 0 5.52344 0 5.91406C0 6.07812 0.0703125 6.25781 0.203125 6.42969L3.39844 10.5781C3.61719 10.8594 3.83594 10.9922 4.14062 10.9922Z" fill="#007aff"/>
 </g>
</svg>
