<svg width="270" height="180" viewBox="0 0 270 180" fill="none" xmlns="http://www.w3.org/2000/svg">
<rect y="28" width="39.9589" height="24.7153" rx="12.3577" fill="#8DD26C"/>
<path d="M270 135.5C270 142.404 264.404 148 257.5 148L249.5 148C242.596 148 237 142.404 237 135.5V135.5C237 128.596 242.596 123 249.5 123L257.5 123C264.404 123 270 128.596 270 135.5V135.5Z" fill="#8DD26C"/>
<path fill-rule="evenodd" clip-rule="evenodd" d="M135.881 164.879C153.387 164.879 169.412 158.527 181.778 148L214.5 148C221.404 148 227 142.404 227 135.5C227 128.596 221.404 123 214.5 123H200.56C204.545 114.131 206.762 104.294 206.762 93.9395C206.762 89.8706 206.419 85.8816 205.762 82H235C243.284 82 250 75.2843 250 67C250 58.7157 243.284 52 235 52H193.054C180.154 34.415 159.349 23 135.881 23C126.089 23 116.761 24.9872 108.277 28.5807C107.085 28.2035 105.816 28 104.5 28H64.5C57.5964 28 52 33.5964 52 40.5C52 47.4036 57.5964 53 64.5 53H77.9875C69.8071 64.566 65 78.6909 65 93.9395C65 94.5312 65.0072 95.1212 65.0216 95.7094H41.547H34.2952C26.1216 95.7094 19.4956 102.335 19.4956 110.509C19.4956 118.683 26.1216 125.309 34.2952 125.309H72.2888C83.8567 148.753 107.987 164.879 135.881 164.879ZM124.23 121.732C124.385 121.74 124.54 121.743 124.693 121.743C125.976 121.744 127.246 121.482 128.425 120.975C129.604 120.467 130.667 119.724 131.549 118.79L166.747 81.6068C168.468 79.7845 169.396 77.3533 169.328 74.8468C169.26 72.3403 168.201 69.9633 166.384 68.2372L166.015 67.8884C164.195 66.1666 161.766 65.2378 159.262 65.3056C156.758 65.3734 154.383 66.4323 152.659 68.2501L129.976 92.2137C129.419 92.8135 128.736 93.2826 127.976 93.5876C127.216 93.8926 126.399 94.026 125.582 93.9781C124.766 93.9386 123.968 93.7228 123.242 93.3456C122.517 92.9684 121.882 92.4387 121.381 91.7929C119.84 89.8161 117.578 88.5317 115.092 88.2213C112.605 87.911 110.098 88.6 108.118 90.1374L107.718 90.4493C105.743 91.9908 104.459 94.2537 104.148 96.7415C103.838 99.2293 104.526 101.739 106.062 103.719L117.234 118.093C118.069 119.168 119.126 120.05 120.334 120.679C121.542 121.307 122.871 121.666 124.23 121.732Z" fill="#8DD26C"/>
<path d="M232.02 107.008C232.282 111.266 233.378 112.742 237.982 113.012C233.378 113.374 232.45 114.35 232.02 118.939C231.683 114.326 230.748 113.29 226 113.012C230.748 112.657 231.649 111.266 232.02 107.008Z" fill="#8DD26C"/>
<path d="M172.02 168.008C172.282 172.266 173.378 173.742 177.982 174.012C173.378 174.374 172.45 175.35 172.02 179.939C171.683 175.326 170.748 174.29 166 174.012C170.748 173.657 171.649 172.266 172.02 168.008Z" fill="#8DD26C"/>
<path d="M120.02 0.00789459C120.282 4.26599 121.378 5.74157 125.982 6.01229C121.378 6.37396 120.45 7.35026 120.02 11.939C119.683 7.32586 118.748 6.28964 114 6.01229C118.748 5.65725 119.649 4.26599 120.02 0.00789459Z" fill="#8DD26C"/>
<path d="M57.0307 145.013C57.4665 152.108 59.2929 154.566 66.9649 155.018C59.2929 155.62 57.7475 157.247 57.0307 164.893C56.4688 157.206 54.9114 155.48 47 155.018C54.9114 154.426 56.4129 152.108 57.0307 145.013Z" fill="#8DD26C"/>
<path d="M225.031 18.0132C225.467 25.1079 227.293 27.5665 234.965 28.0176C227.293 28.6202 225.748 30.2469 225.031 37.8925C224.469 30.2062 222.911 28.4797 215 28.0176C222.911 27.426 224.413 25.1079 225.031 18.0132Z" fill="#8DD26C"/>
<path d="M46.0201 59.0079C46.2817 63.266 47.3778 64.7416 51.9823 65.0123C47.3778 65.374 46.4503 66.3503 46.0201 70.939C45.6828 66.3259 44.7481 65.2896 39.9999 65.0123C44.7481 64.6573 45.6493 63.266 46.0201 59.0079Z" fill="#8DD26C"/>
</svg>
